_________________________  Visit us at _________________________
  
http://p2pdl.com  ____________________________  http://p2pdl.com


The Devils In The Details 2013 BRRip 720p x264 AAC - PRiSTiNE

Genre: Thriller
Plot: 7 minutes from now in Nogales, Arizona. Thomas Conrad's 
life will forever change when he gets caught up in a Mexican 
cartels poetic game of drug mule chess.
Director: Waymon Boone
Stars: Ray Liotta, Emilio Rivera, Joel Mathews
Rated: Rated R for strong violence, torture and language throughout

Info: 
http://www.imdb.com/title/tt2137359/

General
Complete name                  : The Devils In The Details 2013 BRRip 720p x264 AAC - PRiSTiNE.mp4
Format                         : MPEG-4
Format profile                 : Base Media
Codec ID                       : isom
File size                      : 561 MiB
Duration                       : 1h 40mn
Overall bit rate mode          : Variable
Overall bit rate               : 782 Kbps

Source                         : 720p BluRay LCHD (Thanks)

Video
Format                         : AVC
Format/Info                    : Advanced Video Codec
Format profile                 : High@L4.1
Format settings, CABAC         : Yes
Duration                       : 1h 40mn
Bit rate                       : 699 Kbps
Width                          : 1 280 pixels
Height                         : 528 pixels
Display aspect ratio           : 2.40:1
Frame rate mode                : Constant
Frame rate                     : 23.976 fps
Color space                    : YUV
Chroma subsampling             : 4:2:0
Bit depth                      : 8 bits
Scan type                      : Progressive
Bits/(Pixel*Frame)             : 0.043
Stream size                    : 501 MiB (89%)
Writing library                : x264 core 129 r2245 bc13772

Audio
Format                         : AAC
Duration                       : 1h 40mn
Bit rate mode                  : Variable
Bit rate                       : 79.7 Kbps
Channel(s)                     : 2 channels
Channel positions              : Front: L R
Sampling rate                  : 48.0 KHz / 24.0 KHz
Compression mode               : Lossy
Stream size                    : 57.2 MiB (10%)
Language                       : English

Subtitle                       : No

Screens: 
http://imgr.us/images/sk37zdfnn0p6cer91avf.jpg 
http://imgr.us/images/ndijymwajf7ypzrkvq75.jpg 
http://imgr.us/images/u1u5e5nkvwn7t7fn0pft.jpg 
http://imgr.us/images/ydj332n16wmb1mduywub.jpg

Thumbs: 
http://imgr.us/images/c2apg7ri6nlca1hfv9o.jpg
----------------------------------------------------------------------------------------------------
Encoded using revolutionary 10bit encoding, which enables us to provide you more crispier 
and sharper images at small sizes, just make sure you follow our instructions without a fault.
Recommend to you to use latest version of VLC player. Install K-Lite Codec Pack or shark007 codecs
in case of any kind of problem in playback (For non-VLC Media Player users). Alternatively, install
Core AVC codecs, the fastest decoder that there is coupled with Community Center Codec Pack and play
on Windows Media Player Classic. Check sample to be sure.
Enjoy!